<svg width="16" height="20" viewBox="0 0 16 20" fill="none" xmlns="http://www.w3.org/2000/svg">
<path d="M0.409912 14.1921L1.58991 15.8071L5.99991 12.5841V19.0001C5.99992 19.1797 6.04829 19.356 6.13996 19.5104C6.23163 19.6649 6.3632 19.7918 6.52086 19.8778C6.67852 19.9639 6.85644 20.0059 7.03593 19.9994C7.21542 19.9929 7.38986 19.9383 7.54091 19.8411L14.5409 15.3411C14.6778 15.2534 14.7912 15.1337 14.8713 14.9923C14.9514 14.8508 14.9958 14.692 15.0007 14.5295C15.0055 14.367 14.9706 14.2059 14.899 14.0599C14.8274 13.914 14.7213 13.7877 14.5899 13.6921L9.53691 10.0001L14.5899 6.30808C14.7209 6.21205 14.8266 6.0856 14.8979 5.93964C14.9692 5.79368 15.0039 5.63257 14.9991 5.47021C14.9943 5.30784 14.95 5.14908 14.8702 5.0076C14.7904 4.86613 14.6774 4.74617 14.5409 4.65808L7.54091 0.158085C7.38969 0.0609036 7.21512 0.00619067 7.03548 -0.000319129C6.85585 -0.00682893 6.67777 0.0351042 6.51991 0.121085C6.19991 0.297085 5.99991 0.634085 5.99991 1.00008V7.41608L1.58991 4.19208L0.409912 5.80808L5.99991 9.89308V10.1081L0.409912 14.1921ZM7.99991 2.83208L12.2319 5.55308L7.99991 8.64608V2.83208ZM7.99991 11.3541L12.2319 14.4471L7.99991 17.1681V11.3541Z" fill="#F2F2F7"/>
</svg>
