<svg width="157" height="39" viewBox="0 0 157 39" fill="none" xmlns="http://www.w3.org/2000/svg">
<path fill-rule="evenodd" clip-rule="evenodd" d="M90.5995 38.8905H92.7871V0.397018H90.5995V38.8905ZM63.2531 38.8905V22.8522H79.9877V20.8051H63.2531V7.49891H82.2774V5.4518H61.1755V38.9141L63.2531 38.8905ZM1.66756 7.49891H21.1396L0.791748 37.245V38.8905H24.8588V36.8355H3.65089L24.1087 7.08555V5.4518H1.68326L1.66756 7.49891ZM53.5092 7.49891V5.4518H32.8432V38.9141H53.517V36.8591H34.9208V22.8522H51.2195V20.6594H34.8109V7.49891H53.5092ZM156.898 5.4518H136.216V38.9141H157V36.8591H138.404V22.8522H154.702V20.6594H138.294V7.49891H156.898V5.4518ZM103.953 38.9141H106.03V25.045H116.634L125.275 38.8905H127.238V37.9299C126.995 37.9299 118.814 24.5175 118.814 24.4978C124.964 22.2302 126.08 18.3446 125.86 14.4355C125.589 9.47122 122.254 5.4518 115.978 5.4518H103.945L103.953 38.9141ZM116.768 22.8522H106.022V7.49891H115.538C118.508 7.49891 123.884 9.298 123.825 15.0299C123.806 17.2187 122.364 22.8522 116.768 22.8522Z" fill="white"/>
</svg>
