<svg width="57" height="59" viewBox="0 0 57 59" fill="none" xmlns="http://www.w3.org/2000/svg">
<path d="M16.5 5.7735C22.688 2.20085 30.312 2.20085 36.5 5.7735L42.9138 9.4765C49.1018 13.0492 52.9138 19.6517 52.9138 26.797V34.203C52.9138 41.3483 49.1018 47.9508 42.9138 51.5235L36.5 55.2265C30.312 58.7992 22.688 58.7992 16.5 55.2265L10.0862 51.5235C3.8982 47.9508 0.0862255 41.3483 0.0862255 34.203V26.797C0.0862255 19.6517 3.8982 13.0492 10.0862 9.4765L16.5 5.7735Z" fill="white"/>
<path fill-rule="evenodd" clip-rule="evenodd" d="M12.7287 10.1214C12.8819 14.566 15.2344 17.7862 20.069 19.4121C24.3695 20.8569 27.0558 23.9157 26.5688 30.435C27.0048 26.5809 24.9743 23.3489 19.8294 22.1993C14.9712 21.1128 12.6933 17.3335 12.7287 10.1214ZM2.46248 25.8684C5.70651 28.8997 9.63783 29.5099 14.2054 27.2305C18.2663 25.2227 22.3233 25.4747 26.5688 30.4271C24.1613 27.3958 20.4342 26.5415 15.9924 29.3799C11.7822 32.0609 7.52096 30.9861 2.46248 25.8684ZM6.31918 44.2845C10.7493 44.1309 13.9619 41.7728 15.5839 36.9267C17.0253 32.6159 20.0768 29.9232 26.5806 30.4114C22.7357 29.9744 19.5113 32.0136 18.3645 37.1668C17.2805 42.0523 13.5063 44.3356 6.31918 44.3002V44.2845ZM22.0288 54.5751C25.0529 51.3234 25.6616 47.3827 23.3876 42.8042C21.369 38.7337 21.6242 34.667 26.561 30.4114C23.5644 32.8443 22.6925 36.5763 25.5281 41.0288C28.1987 45.2372 27.1422 49.5203 22.0366 54.6066L22.0288 54.5751ZM40.4011 50.7132C40.248 46.2686 37.8954 43.0483 33.0608 41.4225C28.7407 39.9777 26.074 36.9188 26.561 30.3996C26.125 34.2536 28.1594 37.4857 33.3004 38.6352C38.1664 39.7415 40.4522 43.5207 40.409 50.7289L40.4011 50.7132ZM50.6673 34.9662C47.4233 31.9349 43.492 31.3247 38.9244 33.6041C34.8635 35.6276 30.8065 35.3717 26.561 30.4232C28.9724 33.4545 32.6956 34.3088 37.1375 31.4704C41.3437 28.7934 45.6167 29.8524 50.6634 34.9701L50.6673 34.9662ZM46.8146 16.5501C42.3805 16.7036 39.1679 19.0617 37.5459 23.9079C36.132 28.2304 33.0608 30.9153 26.5688 30.4271C30.4138 30.8641 33.6381 28.8288 34.785 23.6717C35.865 18.8019 39.6314 16.5186 46.8224 16.554L46.8146 16.5501ZM31.105 6.26337C28.077 9.51512 27.4682 13.4558 29.7422 18.0342C31.7609 22.1048 31.5056 26.1715 26.5688 30.4271C29.5929 28.01 30.4452 24.2779 27.6135 19.8255C24.939 15.6328 25.9954 11.3339 31.105 6.26337ZM6.64123 11.2079L19.9276 3.51946C23.7607 1.29914 29.3769 1.29914 33.2101 3.51946L46.4964 11.2079C50.3296 13.4243 53.1377 18.2941 53.1377 22.7387V38.1156C53.1377 42.5523 50.3296 47.4299 46.4964 49.6463L33.2101 57.3348C29.3769 59.5551 23.7607 59.5551 19.9276 57.3348L6.64123 49.6463C2.80809 47.4299 0 42.5523 0 38.1156V22.7387C0 18.3019 2.80809 13.4283 6.64123 11.2079Z" fill="#FF453A"/>
</svg>
