<svg width="22" height="22" viewBox="0 0 22 22" fill="none" xmlns="http://www.w3.org/2000/svg">
    <path d="M4.27299 21.0431L4.27283 21.0429L1.35756 18.1307C1.35736 18.1305 1.35715 18.1303 1.35695 18.1301C0.729994 17.5005 0.439373 16.6028 0.584712 15.7355L0.584834 15.7347C1.16818 12.2218 3.04006 8.7165 5.87767 5.87383C8.71807 3.03659 12.2236 1.16263 15.7335 0.584808L15.7369 0.584213C15.8823 0.559232 16.0264 0.547632 16.178 0.547632C16.9049 0.547632 17.6157 0.842481 18.1299 1.35668L21.0433 4.26965C21.3087 4.53506 21.4526 4.88172 21.4526 5.25484C21.4526 5.62503 21.3061 5.97718 21.0433 6.23995C21.0433 6.23997 21.0433 6.24 21.0433 6.24002L17.9004 9.37429L17.9004 9.37428L17.8976 9.37713C17.7698 9.50664 17.6174 9.60935 17.4494 9.67923C17.2814 9.74912 17.1011 9.78477 16.9191 9.78409L16.9173 9.78409C16.5478 9.78409 16.1981 9.63815 15.9348 9.37495C15.9348 9.37493 15.9348 9.37492 15.9347 9.3749C15.9347 9.37485 15.9346 9.3748 15.9346 9.37475L13.4814 6.91918L13.2412 6.67867L12.9292 6.81368C11.5685 7.40245 10.3411 8.23473 9.29115 9.29004C8.24251 10.335 7.40358 11.571 6.81966 12.9314L6.68612 13.2425L6.92539 13.482L9.37874 15.9378L9.37893 15.938C9.64437 16.2034 9.7883 16.55 9.7883 16.9231C9.7883 17.2934 9.64174 17.6455 9.37893 17.9083L6.23863 21.0427L6.23697 21.0444C5.97536 21.308 5.62687 21.4524 5.25566 21.4524C4.88609 21.4524 4.53635 21.3064 4.27299 21.0431Z" stroke="white" stroke-width="2"/>
</svg>
